<?xml version="1.0" encoding="UTF-8" standalone="no"?>
<svg
   xml:space="preserve"
   id="svg5"
   version="1.1"
   viewBox="-10 -10 80 80"
   sodipodi:docname="block.svg"
   inkscape:version="1.2.1 (9c6d41e410, 2022-07-14)"
   width="80"
   height="80"
   xmlns:inkscape="http://www.inkscape.org/namespaces/inkscape"
   xmlns:sodipodi="http://sodipodi.sourceforge.net/DTD/sodipodi-0.dtd"
   xmlns="http://www.w3.org/2000/svg"
   xmlns:svg="http://www.w3.org/2000/svg"><defs
   id="defs8319" /><sodipodi:namedview
   id="namedview8317"
   pagecolor="#505050"
   bordercolor="#ffffff"
   borderopacity="1"
   inkscape:showpageshadow="0"
   inkscape:pageopacity="0"
   inkscape:pagecheckerboard="1"
   inkscape:deskcolor="#505050"
   showgrid="false"
   inkscape:zoom="16"
   inkscape:cx="10.40625"
   inkscape:cy="42.375"
   inkscape:window-width="2560"
   inkscape:window-height="1377"
   inkscape:window-x="-8"
   inkscape:window-y="-8"
   inkscape:window-maximized="1"
   inkscape:current-layer="svg5"
   showguides="false" />
	
<path
   sodipodi:type="star"
   style="fill:#31003b;fill-opacity:1;stroke:#9f6ea4;stroke-width:0.7;stroke-linecap:round;stroke-linejoin:round;stroke-dasharray:none;stroke-opacity:1"
   id="path36172"
   inkscape:flatsided="false"
   sodipodi:sides="4"
   sodipodi:cx="7.75"
   sodipodi:cy="22.0625"
   sodipodi:r1="12.387777"
   sodipodi:r2="6.1938887"
   sodipodi:arg1="1.5707963"
   sodipodi:arg2="2.3561945"
   inkscape:rounded="0.5"
   inkscape:randomized="0"
   d="m 7.7500003,34.450277 c -4.563737,0 -1.1526915,-4.780987 -4.379741,-8.008036 -3.22704937,-3.22705 -8.0080367,0.183996 -8.0080366,-4.379741 0,-4.563737 4.78098734,-1.152691 8.0080367,-4.379741 3.2270491,-3.227049 -0.1839966,-8.0080364 4.3797403,-8.0080363 4.5637373,0 1.1526915,4.7809873 4.3797413,8.0080363 3.227049,3.22705 8.008036,-0.183996 8.008036,4.379741 0,4.563737 -4.780987,1.152691 -8.008036,4.379741 -3.2270495,3.227049 0.183996,8.008036 -4.3797407,8.008036 z"
   transform="matrix(1.7440664,1.7440664,-1.7662099,1.7662099,55.450491,-22.483521)" /><path
   style="fill:#9b95b0;stroke:#9f6ea4;stroke-width:1;stroke-dasharray:none"
   d="M 30,-10 V 70 Z"
   id="path8337" /><path
   style="fill:#9b95b0;stroke:#9f6ea4;stroke-width:1;stroke-dasharray:none"
   d="M 70,30 H -10 Z"
   id="path8337-2" /></svg>
